<svg width="32" height="32" viewBox="0 0 32 32" fill="none" xmlns="http://www.w3.org/2000/svg">
<path d="M13.605 3.16425C16.4314 6.40733 7.73217 8.61004 3.7412 6.17739C2.0782 5.14102 2.84308 3.13825 6.87688 2.04989C8.89556 1.49272 11.722 0.986196 13.605 3.16425Z" fill="black"/>
<path d="M31.3973 1.73732C34.4723 5.26765 24.9974 7.6663 20.6544 5.01772C18.8439 3.88804 19.6754 1.70999 24.072 0.524326C26.2679 -0.0828356 29.3441 -0.63268 31.3973 1.73732Z" fill="black"/>
<path fill-rule="evenodd" clip-rule="evenodd" d="M13.2019 31.9161C19.6374 32.3287 26.3358 31.2043 28.9231 28.8823C31.1107 26.9342 29.3204 26.2597 26.7997 27.8326C21.4943 31.2423 15.989 29.7061 13.6682 26.2597L14.2653 26.1477C25.4734 23.6378 32.5037 16.821 28.0607 12.9628C21.957 7.64364 2.85628 12.4003 0.467642 19.8549C-1.72115 26.7469 3.98279 31.3543 13.2019 31.9161ZM20.1012 13.338C22.0247 15.0609 19.7039 21.1665 12.739 23.9384C12.5403 23.0759 12.5403 22.1402 12.6724 21.1665C14.0654 14.3491 18.0456 11.5405 20.1012 13.338Z" fill="black"/>
</svg>
